Coordinates
version=1
nRows=22
nColumns=24
inDegrees=yes

Units are S.I. units (second, meters, Newtons, ...)
Angles are in degrees.

endheader
time	pelvis_tilt	pelvis_list	pelvis_rotation	pelvis_tx	pelvis_ty	pelvis_tz	hip_flexion_r	hip_adduction_r	hip_rotation_r	knee_angle_r	ankle_angle_r	subtalar_angle_r	mtp_angle_r	hip_flexion_l	hip_adduction_l	hip_rotation_l	knee_angle_l	ankle_angle_l	subtalar_angle_l	mtp_angle_l	lumbar_extension	lumbar_bending	lumbar_rotation
      5.09000000	     -1.14980902	     -3.47138537	     -6.67571326	     -0.71438131	      0.92151127	      0.19311338	    -15.33492868	      6.52132574	     -1.33660560	    -16.48955432	     14.16056230	     11.48054870	      0.00000000	     26.16935119	     -1.16030259	     -6.59057733	     -9.92378164	    -11.30355745	     -7.75388482	      0.00000000	    -17.68626147	      3.33928270	      5.13159148
      5.10000000	     -1.07887307	     -3.10457664	     -6.66337306	     -0.69816997	      0.92074125	      0.19244026	    -15.21031721	      5.76752479	     -2.15196518	    -18.39939618	     12.49054175	     11.94175642	      0.00000000	     25.93467692	     -0.46002835	     -5.72353339	    -11.62262578	     -8.76355022	     -8.70912320	      0.00000000	    -17.44306809	      2.86167396	      4.79865743
      5.11000000	     -1.02146626	     -2.61508537	     -6.60467302	     -0.68205277	      0.92031185	      0.19165041	    -14.82900233	      4.83788976	     -3.21374728	    -20.59665137	     10.47626826	     12.49939230	      0.00000000	     25.72981467	      0.41362638	     -4.75047271	    -13.33044602	     -6.25492214	     -9.69716905	      0.00000000	    -17.19685869	      2.24240093	      4.46484764
      5.12000000	     -0.90410077	     -2.07979370	     -6.45073849	     -0.66620705	      0.92035747	      0.19076114	    -14.31644528	      3.88299037	     -4.14134877	    -22.96448230	      7.79077972	     12.52271792	      0.00000000	     25.52852371	      1.37287941	     -3.80604356	    -15.10106572	     -3.87396639	    -10.54834373	      0.00000000	    -17.08827439	      1.56620734	      4.06407709
      5.13000000	     -0.77928365	     -1.55038190	     -6.17132418	     -0.65073492	      0.92077049	      0.18973309	    -13.60106201	      2.97025154	     -4.97264583	    -25.51463588	      4.50735811	     12.18574255	      0.00000000	     25.41179816	      2.34638644	     -2.96356920	    -16.96700665	     -1.71779193	    -11.25801456	      0.00000000	    -17.07081862	      0.91361541	      3.50655345
      5.14000000	     -0.63452419	     -1.07473261	     -5.88482448	     -0.63573714	      0.92159031	      0.18878727	    -12.67753865	      2.16484119	     -5.43355428	    -28.24632480	      0.49272389	     11.13761567	      0.00000000	     25.29186833	      3.21032297	     -2.35461791	    -18.81460410	      0.25408314	    -11.53459657	      0.00000000	    -17.17440778	      0.30692250	      3.07782161
      5.15000000	     -0.46872535	     -0.67457635	     -5.57010988	     -0.62118899	      0.92273860	      0.18790118	    -11.55151114	      1.47005102	     -5.70677055	    -31.14847818	     -3.98936983	      9.83576843	      0.00000000	     25.12063153	      3.92582057	     -2.05707625	    -20.56185361	      2.05005033	    -11.33383859	      0.00000000	    -17.38678687	     -0.21304286	      2.63233234
      5.16000000	     -0.34125658	     -0.36401874	     -5.31026137	     -0.60708912	      0.92408599	      0.18720581	    -10.15979744	      0.90686694	     -5.70509370	    -34.20787393	     -8.67525400	      8.36547026	      0.00000000	     24.88650503	      4.41851231	     -2.17618145	    -22.08943655	      3.79685455	    -10.46745362	      0.00000000	    -17.62084380	     -0.63439525	      2.24843301
      5.17000000	     -0.25904191	     -0.16112110	     -5.09226792	     -0.59340947	      0.92553146	      0.18664470	     -8.53115558	      0.49134261	     -5.54357423	    -37.36733710	    -13.17602137	      6.77891934	      0.00000000	     24.53230380	      4.71469274	     -2.48784783	    -23.28823268	      5.44584469	     -9.43218813	      0.00000000	    -17.84701335	     -0.92142906	      1.92390459
      5.18000000	     -0.25392720	     -0.00898740	     -4.97776388	     -0.58009666	      0.92702420	      0.18627310	     -6.65925507	      0.17068613	     -5.18422315	    -40.57511394	    -17.13033155	      5.18830828	      0.00000000	     24.03131035	      4.87371970	     -2.95983710	    -24.04007765	      6.90592991	     -8.35783828	      0.00000000	    -17.99681266	     -1.14287172	      1.67223149
      5.19000000	     -0.33047656	      0.12151918	     -4.96079824	     -0.56710695	      0.92853770	      0.18603261	     -4.58841834	     -0.07898319	     -4.68627948	    -43.74967065	    -20.23609681	      3.62660999	      0.00000000	     23.37922234	      4.97016402	     -3.47959532	    -24.32151735	      8.12995889	     -7.48026147	      0.00000000	    -18.04373029	     -1.32312181	      1.50135619
      5.20000000	     -0.46360884	      0.28031289	     -4.98254075	     -0.55436932	      0.93008586	      0.18583255	     -2.40438806	     -0.32381839	     -4.19905107	    -46.80021987	    -22.20658250	      2.16007885	      0.00000000	     22.59091499	      5.07926946	     -4.08776178	    -24.20080375	      9.22711474	     -6.58397319	      0.00000000	    -18.00213483	     -1.50989735	      1.29299591
      5.21000000	     -0.61916049	      0.45351136	     -4.98896798	     -0.54182745	      0.93173937	      0.18556574	     -0.20801888	     -0.54350213	     -3.75995707	    -49.61967347	    -23.04338790	      0.74554827	      0.00000000	     21.66146753	      5.24937923	     -4.58521544	    -23.73682044	     10.10404109	     -5.92415388	      0.00000000	    -17.91019657	     -1.67341012	      1.02881034
      5.22000000	     -0.74479773	      0.65795522	     -4.93175689	     -0.52940359	      0.93360204	      0.18515101	      1.89840221	     -0.77582857	     -3.42673445	    -52.12774998	    -22.83944180	     -0.55657968	      0.00000000	     20.56531233	      5.53185722	     -4.87573315	    -22.98012835	     10.64711256	     -5.57120702	      0.00000000	    -17.82675602	     -1.83243109	      0.66157381
      5.23000000	     -0.90849512	      0.76682500	     -4.73950268	     -0.51713793	      0.93555082	      0.18453912	      3.94849970	     -0.87801240	     -3.25744343	    -54.25969983	    -21.81106815	     -1.85655078	      0.00000000	     19.48539123	      5.77962177	     -4.93875453	    -22.17314515	     11.18530022	     -5.24921841	      0.00000000	    -17.69713942	     -1.82295469	      0.22376735
      5.24000000	     -1.00341795	      0.85716150	     -4.41426096	     -0.50492061	      0.93776661	      0.18371688	      5.81853299	     -0.97717896	     -3.25811177	    -55.99441738	    -20.22199774	     -2.99033515	      0.00000000	     18.28140416	      6.08271549	     -4.73585137	    -21.25651761	     11.53074903	     -5.05568280	      0.00000000	    -17.64083823	     -1.75639970	     -0.33085436
      5.25000000	     -1.14661779	      0.86564863	     -3.99130364	     -0.49280415	      0.94002048	      0.18276547	      7.65745800	     -1.00502303	     -3.39394479	    -57.36611963	    -18.18897982	     -3.82362135	      0.00000000	     17.14206375	      6.32325374	     -4.34719552	    -20.36450737	     11.75130680	     -4.93648934	      0.00000000	    -17.51820579	     -1.56621303	     -0.91471793
      5.26000000	     -1.27545982	      0.77405760	     -3.49605265	     -0.48076105	      0.94239309	      0.18173451	      9.39064624	     -0.95291722	     -3.63622729	    -58.36214846	    -15.89110582	     -4.26989380	      0.00000000	     15.99308828	      6.46842197	     -3.80885910	    -19.48660954	     11.82543697	     -4.95400730	      0.00000000	    -17.41351053	     -1.24531266	     -1.42989522
      5.27000000	     -1.38906389	      0.63147374	     -2.96670446	     -0.46878761	      0.94481671	      0.18070875	     11.03934651	     -0.86261917	     -3.91732734	    -59.02357004	    -13.63275715	     -4.46256929	      0.00000000	     14.83643134	      6.54797158	     -3.18118474	    -18.62228663	     11.84975676	     -4.97098550	      0.00000000	    -17.32932495	     -0.87576409	     -1.93147058
      5.28000000	     -1.50498440	      0.44118713	     -2.47281406	     -0.45688440	      0.94720782	      0.17979843	     12.63782774	     -0.72199558	     -4.16381471	    -59.38312479	    -11.42522989	     -4.35327923	      0.00000000	     13.69018466	      6.53883107	     -2.57457132	    -17.76345247	     11.80812163	     -5.04709861	      0.00000000	    -17.24069733	     -0.47824045	     -2.34009816
      5.29000000	     -1.63902861	      0.19663337	     -1.99783639	     -0.44502464	      0.94949677	      0.17898844	     14.19280696	     -0.52881084	     -4.40798452	    -59.44478382	     -9.36028600	     -4.00241350	      0.00000000	     12.57144824	      6.43460096	     -1.99170837	    -16.91429645	     11.77909513	     -5.01189349	      0.00000000	    -17.11798400	     -0.04450498	     -2.62622946
      5.30000000	     -1.78647508	     -0.07499015	     -1.61384342	     -0.43323731	      0.95164102	      0.17839861	     15.71241663	     -0.26730980	     -4.53335027	    -59.23299319	     -7.39156617	     -3.46018209	      0.00000000	     11.47706559	      6.24880179	     -1.55265031	    -16.06335648	     11.74595581	     -4.98842990	      0.00000000	    -16.99284680	      0.38262371	     -2.80846799
